<svg xmlns="http://www.w3.org/2000/svg" viewBox="0 0 32 32">
  <defs>
    <linearGradient id="bg" x1="0%" y1="0%" x2="100%" y2="100%">
      <stop offset="0%" stop-color="#6366f1"/>
      <stop offset="100%" stop-color="#4f46e5"/>
    </linearGradient>
  </defs>
  <rect width="32" height="32" rx="6" fill="url(#bg)"/>
  <!-- Kanban board columns -->
  <rect x="5" y="7" width="6" height="18" rx="1.5" fill="rgba(255,255,255,0.15)"/>
  <rect x="6" y="8.5" width="4" height="3" rx="0.75" fill="rgba(255,255,255,0.85)"/>
  <rect x="6" y="13" width="4" height="2.5" rx="0.75" fill="rgba(255,255,255,0.45)"/>
  <rect x="13" y="7" width="6" height="18" rx="1.5" fill="rgba(255,255,255,0.15)"/>
  <rect x="14" y="8.5" width="4" height="3" rx="0.75" fill="rgba(255,255,255,0.85)"/>
  <rect x="14" y="13" width="4" height="2.5" rx="0.75" fill="rgba(255,255,255,0.45)"/>
  <!-- P column -->
  <rect x="21" y="7" width="6" height="18" rx="1.5" fill="rgba(255,255,255,0.2)"/>
  <!-- P letter -->
  <rect x="22.5" y="9" width="2" height="14" rx="0.5" fill="white"/>
  <rect x="22.5" y="9" width="4" height="2" rx="0.5" fill="white"/>
  <rect x="25" y="9" width="2" height="7" rx="0.5" fill="white"/>
  <rect x="22.5" y="14" width="4" height="2" rx="0.5" fill="white"/>
</svg>